<svg width="24" height="24" viewBox="0 0 24 24" fill="none" xmlns="http://www.w3.org/2000/svg">
<path d="M6 15.8369C6 16.3671 6.44772 16.7969 7 16.7969L17 16.7969C17.5523 16.7969 18 16.3671 18 15.8369C18 15.3067 17.5523 14.8769 17 14.8769L7 14.8769C6.44772 14.8769 6 15.3067 6 15.8369Z" fill="white" fill-opacity="0.38"/>
<path d="M8 11.9969C8 12.5271 8.44772 12.9569 9 12.9569L15 12.9569C15.5523 12.9569 16 12.5271 16 11.9969C16 11.4667 15.5523 11.0369 15 11.0369L9 11.0369C8.44772 11.0369 8 11.4667 8 11.9969Z" fill="white" fill-opacity="0.38"/>
<path d="M11 9.11688C10.4477 9.11688 10 8.68707 10 8.15688C10 7.62668 10.4477 7.19688 11 7.19688L13 7.19688C13.5523 7.19688 14 7.62668 14 8.15688C14 8.68707 13.5523 9.11688 13 9.11688L11 9.11688Z" fill="white" fill-opacity="0.38"/>
</svg>
