<svg width="24" height="24" viewBox="0 0 24 24" fill="none" xmlns="http://www.w3.org/2000/svg">
<path d="M18 8.16312C18 7.63293 17.5523 7.20312 17 7.20312H7C6.44771 7.20312 6 7.63293 6 8.16312C6 8.69332 6.44772 9.12312 7 9.12312H17C17.5523 9.12312 18 8.69332 18 8.16312Z" fill="#77787C"/>
<path d="M16 12.0031C16 11.4729 15.5523 11.0431 15 11.0431H9C8.44771 11.0431 8 11.4729 8 12.0031C8 12.5333 8.44771 12.9631 9 12.9631H15C15.5523 12.9631 16 12.5333 16 12.0031Z" fill="#77787C"/>
<path d="M13 14.8831C13.5523 14.8831 14 15.3129 14 15.8431C14 16.3733 13.5523 16.8031 13 16.8031H11C10.4477 16.8031 10 16.3733 10 15.8431C10 15.3129 10.4477 14.8831 11 14.8831H13Z" fill="#77787C"/>
</svg>
