<svg width="16" height="16" viewBox="0 0 16 16" fill="none" xmlns="http://www.w3.org/2000/svg">
<path d="M5 1.60752e-07H1C0.868657 -7.43301e-05 0.738587 0.0257406 0.617228 0.0759689C0.495869 0.126197 0.3856 0.199854 0.292727 0.292727C0.199854 0.3856 0.126197 0.495869 0.0759689 0.617228C0.0257406 0.738587 -7.43301e-05 0.868657 1.60752e-07 1V5C1.60752e-07 5.26521 0.105357 5.51957 0.292893 5.7071C0.48043 5.89464 0.734783 6 1 6C1.26522 6 1.51957 5.89464 1.70711 5.7071C1.89464 5.51957 2 5.26521 2 5V2H5C5.26521 2 5.51957 1.89464 5.7071 1.70711C5.89464 1.51957 6 1.26522 6 1C6 0.734783 5.89464 0.48043 5.7071 0.292893C5.51957 0.105357 5.26521 1.60752e-07 5 1.60752e-07Z" fill="#969CB0"/>
<path d="M15 1.60752e-07H11C10.7348 1.60752e-07 10.4804 0.105357 10.2929 0.292893C10.1054 0.48043 10 0.734784 10 1C10 1.26522 10.1054 1.51957 10.2929 1.70711C10.4804 1.89464 10.7348 2 11 2H14V5C14 5.26522 14.1054 5.51957 14.2929 5.70711C14.4804 5.89464 14.7348 6 15 6C15.2652 6 15.5196 5.89464 15.7071 5.70711C15.8946 5.51957 16 5.26522 16 5V1C16.0001 0.868657 15.9743 0.738588 15.924 0.617229C15.8738 0.495869 15.8001 0.385601 15.7073 0.292727C15.6144 0.199854 15.5041 0.126197 15.3828 0.0759689C15.2614 0.0257406 15.1313 -7.43302e-05 15 1.60752e-07Z" fill="#969CB0"/>
<path d="M5 14H2V11C2 10.7348 1.89464 10.4804 1.70711 10.2929C1.51957 10.1054 1.26522 10 1 10C0.734784 10 0.48043 10.1054 0.292893 10.2929C0.105357 10.4804 1.60752e-07 10.7348 1.60752e-07 11V15C-7.43302e-05 15.1313 0.0257406 15.2614 0.0759689 15.3828C0.126197 15.5041 0.199854 15.6144 0.292727 15.7073C0.385601 15.8001 0.495869 15.8738 0.617229 15.924C0.738588 15.9743 0.868657 16.0001 1 16H5C5.26522 16 5.51957 15.8946 5.70711 15.7071C5.89464 15.5196 6 15.2652 6 15C6 14.7348 5.89464 14.4804 5.70711 14.2929C5.51957 14.1054 5.26522 14 5 14Z" fill="#969CB0"/>
<path d="M15 10C14.8687 9.99993 14.7386 10.0257 14.6172 10.076C14.4959 10.1262 14.3856 10.1999 14.2927 10.2927C14.1999 10.3856 14.1262 10.4959 14.076 10.6172C14.0257 10.7386 13.9999 10.8687 14 11V14H11C10.7348 14 10.4804 14.1054 10.2929 14.2929C10.1054 14.4804 10 14.7348 10 15C10 15.2652 10.1054 15.5196 10.2929 15.7071C10.4804 15.8946 10.7348 16 11 16H15C15.1313 16.0001 15.2614 15.9743 15.3828 15.924C15.5041 15.8738 15.6144 15.8001 15.7073 15.7073C15.8001 15.6144 15.8738 15.5041 15.924 15.3828C15.9743 15.2614 16.0001 15.1313 16 15V11C16.0001 10.8687 15.9743 10.7386 15.924 10.6172C15.8738 10.4959 15.8001 10.3856 15.7073 10.2927C15.6144 10.1999 15.5041 10.1262 15.3828 10.076C15.2614 10.0257 15.1313 9.99993 15 10Z" fill="#969CB0"/>
</svg>
