<svg width="34" height="34" viewBox="0 0 34 34" fill="none" xmlns="http://www.w3.org/2000/svg">
<g clip-path="url(#clip0_2417_11637)">
<path d="M19.7637 21.6721C19.5789 21.4858 19.4748 21.2344 19.4737 20.9721C19.4745 20.7079 19.5798 20.4548 19.7666 20.268C19.9534 20.0812 20.2066 19.9759 20.4708 19.9751L23.4689 19.9751C23.7317 19.9752 23.992 19.9236 24.2349 19.823C24.4777 19.7225 24.6984 19.5751 24.8842 19.3893C25.0701 19.2034 25.2175 18.9828 25.318 18.7399C25.4185 18.4971 25.4702 18.2368 25.47 17.974L25.47 15.9658C25.4552 15.4397 25.2396 14.9393 24.8675 14.5672C24.4954 14.1951 23.9949 13.9795 23.4689 13.9647L20.4708 13.9647C20.2268 13.9376 20.0013 13.8217 19.8372 13.639C19.6732 13.4564 19.582 13.2198 19.5811 12.9743C19.5803 12.7288 19.6697 12.4916 19.8325 12.3078C19.9952 12.124 20.2199 12.0065 20.4637 11.9777L23.4618 11.9777C24.5155 12.0025 25.5191 12.4322 26.2643 13.1774C27.0096 13.9227 27.4392 14.9263 27.4641 15.9799L27.4641 17.974C27.4643 18.4996 27.361 19.0202 27.16 19.5059C26.959 19.9916 26.6642 20.4329 26.2925 20.8046C25.9208 21.1763 25.4795 21.4711 24.9938 21.6721C24.5081 21.8732 23.9875 21.9765 23.4618 21.9762L20.4637 21.962C20.2014 21.961 19.9499 21.8568 19.7637 21.6721Z" fill="white"/>
<path d="M7.64415 20.7954C7.27231 20.4241 6.97726 19.9833 6.77586 19.4979C6.57445 19.0126 6.47064 18.4924 6.47035 17.967L6.47035 15.9729C6.47006 15.4472 6.57338 14.9267 6.7744 14.441C6.97543 13.9553 7.27022 13.514 7.64192 13.1423C8.01362 12.7706 8.45494 12.4758 8.94064 12.2747C9.42635 12.0737 9.94691 11.9704 10.4726 11.9707L13.4778 11.9778C13.7216 12.0066 13.9462 12.1241 14.109 12.3079C14.2717 12.4917 14.3612 12.7289 14.3603 12.9744C14.3595 13.2199 14.2683 13.4565 14.1043 13.6391C13.9402 13.8217 13.7147 13.9376 13.4707 13.9647L10.4726 13.9647C10.2097 13.9646 9.94946 14.0162 9.70661 14.1168C9.46375 14.2173 9.2431 14.3647 9.05725 14.5505C8.8714 14.7364 8.724 14.957 8.62349 15.1999C8.52297 15.4427 8.47132 15.703 8.47146 15.9658L8.47146 17.974C8.4863 18.5001 8.70189 19.0005 9.074 19.3726C9.44612 19.7447 9.94653 19.9603 10.4726 19.9751L13.4707 19.9751C13.6107 19.9586 13.7525 19.9718 13.887 20.0139C14.0215 20.056 14.1456 20.1261 14.2511 20.2196C14.3566 20.313 14.4412 20.4277 14.4993 20.5561C14.5574 20.6845 14.5876 20.8237 14.5881 20.9647C14.5886 21.1056 14.5593 21.245 14.5022 21.3739C14.445 21.5027 14.3613 21.618 14.2564 21.7121C14.1516 21.8063 14.028 21.8773 13.8938 21.9204C13.7596 21.9634 13.6178 21.9777 13.4778 21.9621L10.4796 21.9621C9.9535 21.9637 9.43223 21.8614 8.94566 21.6612C8.4591 21.461 8.01682 21.1668 7.64415 20.7954Z" fill="white"/>
<path d="M11.766 17.6779C11.6724 17.5853 11.598 17.4753 11.5471 17.3539C11.4961 17.2326 11.4696 17.1024 11.469 16.9708C11.4685 16.8387 11.4941 16.7079 11.5444 16.5859C11.5946 16.4638 11.6686 16.3529 11.7619 16.2596C11.8553 16.1662 11.9662 16.0923 12.0882 16.042C12.2103 15.9917 12.3411 15.9661 12.4731 15.9667L21.4746 15.9737C21.7388 15.9745 21.9919 16.0798 22.1787 16.2666C22.3655 16.4534 22.4708 16.7066 22.4716 16.9708C22.4722 17.1028 22.4466 17.2336 22.3963 17.3556C22.346 17.4777 22.2721 17.5886 22.1787 17.682C22.0854 17.7753 21.9745 17.8493 21.8524 17.8995C21.7304 17.9498 21.5995 17.9754 21.4675 17.9749L12.4661 17.9678C12.2037 17.9667 11.9523 17.8626 11.766 17.6779Z" fill="white"/>
</g>
<defs>
<clipPath id="clip0_2417_11637">
<rect width="24" height="24" fill="white" transform="translate(16.9707) rotate(45)"/>
</clipPath>
</defs>
</svg>
