<svg width="40" height="40" viewBox="0 0 40 40" fill="none" xmlns="http://www.w3.org/2000/svg">
<path d="M17.7039 0.951076C19.1741 0.342112 20.8259 0.342112 22.2961 0.951076L31.846 4.90679C33.3162 5.51575 34.4842 6.6838 35.0932 8.15396L39.0489 17.7039C39.6579 19.1741 39.6579 20.8259 39.0489 22.2961L35.0932 31.846C34.4842 33.3162 33.3162 34.4842 31.846 35.0932L22.2961 39.0489C20.8259 39.6579 19.1741 39.6579 17.7039 39.0489L8.15396 35.0932C6.6838 34.4842 5.51575 33.3162 4.90679 31.846L0.951076 22.2961C0.342112 20.8259 0.342112 19.1741 0.951076 17.7039L4.90679 8.15396C5.51575 6.6838 6.6838 5.51575 8.15396 4.90679L17.7039 0.951076Z" fill="#5887F6"/>
<path d="M10.1587 23.4921L16.0635 16.5079L18.819 19.7672L21.5746 18.3704L25.9047 23.4921L29.8412 18.836" stroke="white" stroke-width="3" stroke-linecap="round" stroke-linejoin="round"/>
</svg>
