<svg width="28" height="18" viewBox="0 0 28 18" fill="none" xmlns="http://www.w3.org/2000/svg">
<path d="M25.6273 7.5H1.47278C0.689781 7.5 0.0507812 8.1405 0.0507812 8.9235V9.0765C0.0507812 9.8595 0.689781 10.5 1.47278 10.5H25.6273C26.4103 10.5 27.0508 9.8595 27.0508 9.0765V8.9235C27.0508 8.1405 26.4103 7.5 25.6273 7.5Z" fill="white"/>
<path d="M17.1018 15H0.998781C0.476781 15 0.0507812 15.6405 0.0507812 16.4235V16.5765C0.0507812 17.3595 0.476781 18 0.998781 18H17.1018C17.6238 18 18.0508 17.3595 18.0508 16.5765V16.4235C18.0508 15.6405 17.6238 15 17.1018 15Z" fill="white"/>
<path d="M21.3645 0H1.23578C0.583281 0 0.0507812 0.6405 0.0507812 1.4235V1.5765C0.0507812 2.3595 0.583281 3 1.23578 3H21.3645C22.017 3 22.5508 2.3595 22.5508 1.5765V1.4235C22.5508 0.6405 22.017 0 21.3645 0Z" fill="white"/>
</svg>
