<svg width="24" height="36" viewBox="0 0 24 36" fill="none" xmlns="http://www.w3.org/2000/svg">
    <g clip-path="url(#clip0_5987_24289)">
    <path d="M21 12H12C11.4 12 11 11.6 11 11C11 10.4 11.4 10 12 10H21C21.6 10 22 10.4 22 11C22 11.6 21.6 12 21 12ZM3 17H21C21.6 17 22 17.4 22 18C22 18.6 21.6 19 21 19H3C2.4 19 2 18.6 2 18C2 17.4 2.4 17 3 17ZM8 24H21C21.6 24 22 24.4 22 25C22 25.6 21.6 26 21 26H8C7.4 26 7 25.6 7 25C7 24.4 7.4 24 8 24Z" fill="white"/>
    <circle cx="21" cy="9" r="3.5" fill="#FA4611" stroke="#202227"/>
    </g>
    <defs>
    <clipPath id="clip0_5987_24289">
    <rect width="24" height="24" fill="white" transform="matrix(-1 0 0 1 24 6)"/>
    </clipPath>
    </defs>
    </svg>
    