<svg width="16" height="16" viewBox="0 0 16 16" fill="none" xmlns="http://www.w3.org/2000/svg">
<path d="M8 15.1667C4.04667 15.1667 0.833332 11.9533 0.833332 8C0.833332 4.04666 4.04667 0.833328 8 0.833328C11.9533 0.833328 15.1667 4.04666 15.1667 8C15.1667 11.9533 11.9533 15.1667 8 15.1667ZM8 1.83333C4.6 1.83333 1.83333 4.6 1.83333 8C1.83333 11.4 4.6 14.1667 8 14.1667C11.4 14.1667 14.1667 11.4 14.1667 8C14.1667 4.6 11.4 1.83333 8 1.83333Z" fill="#969CB0"/>
<path d="M8 9.16666C7.72667 9.16666 7.5 8.93999 7.5 8.66666V5.33333C7.5 5.05999 7.72667 4.83333 8 4.83333C8.27333 4.83333 8.5 5.05999 8.5 5.33333V8.66666C8.5 8.93999 8.27333 9.16666 8 9.16666Z" fill="#969CB0"/>
<path d="M8 11.3333C7.91333 11.3333 7.82667 11.3133 7.74667 11.28C7.66667 11.2467 7.59333 11.2 7.52667 11.14C7.46667 11.0733 7.42 11.0067 7.38667 10.92C7.35333 10.84 7.33333 10.7533 7.33333 10.6667C7.33333 10.58 7.35333 10.4933 7.38667 10.4133C7.42 10.3333 7.46667 10.26 7.52667 10.1933C7.59333 10.1333 7.66667 10.0867 7.74667 10.0533C7.90667 9.98666 8.09333 9.98666 8.25333 10.0533C8.33333 10.0867 8.40667 10.1333 8.47333 10.1933C8.53333 10.26 8.58 10.3333 8.61333 10.4133C8.64667 10.4933 8.66667 10.58 8.66667 10.6667C8.66667 10.7533 8.64667 10.84 8.61333 10.92C8.58 11.0067 8.53333 11.0733 8.47333 11.14C8.40667 11.2 8.33333 11.2467 8.25333 11.28C8.17333 11.3133 8.08667 11.3333 8 11.3333Z" fill="#969CB0"/>
</svg>
